<svg xmlns="http://www.w3.org/2000/svg" width="23.187" height="20.2" viewBox="0 0 23.187 20.2">
  <path id="briefcase" d="M20.7,36.455H15.745v-2a1.725,1.725,0,0,0-1.723-1.723H8.965a1.725,1.725,0,0,0-1.723,1.723v2H2.288A2.291,2.291,0,0,0,0,38.744v11.7a2.291,2.291,0,0,0,2.288,2.288H20.7a2.291,2.291,0,0,0,2.288-2.288v-11.7A2.291,2.291,0,0,0,20.7,36.455Zm-12-2a.264.264,0,0,1,.264-.264h5.057a.264.264,0,0,1,.264.264v2H8.7ZM1.46,38.744a.829.829,0,0,1,.829-.829H20.7a.829.829,0,0,1,.829.829v1.08a2.305,2.305,0,0,1-1.652,2.2l-7.634,2.223a2.668,2.668,0,0,1-1.494,0L3.112,42.026a2.305,2.305,0,0,1-1.652-2.2ZM20.7,51.276H2.288a.829.829,0,0,1-.829-.828V42.8a3.737,3.737,0,0,0,1.244.632c8.433,2.455,8,2.388,8.789,2.388s.346.07,8.789-2.388a3.736,3.736,0,0,0,1.244-.632v7.652a.829.829,0,0,1-.828.829Z" transform="translate(0.1 -32.636)" fill="#6f8195" stroke="#6f8195" stroke-linecap="round" stroke-linejoin="round" stroke-width="0.2"/>
</svg>
