<svg xmlns="http://www.w3.org/2000/svg" width="17.924" height="20" viewBox="0 0 17.924 20">
  <path id="done" d="M7.613,18.437H3.125a1.568,1.568,0,0,1-1.567-1.562V5.078A1.568,1.568,0,0,1,3.125,3.516H5.582v.391a2.344,2.344,0,0,0,4.687,0V3.516H12.73a1.564,1.564,0,0,1,1.562,1.562v6.016a.781.781,0,1,0,1.562,0V5.078A3.129,3.129,0,0,0,12.73,1.953H10.269V.781A.781.781,0,0,0,9.488,0H6.363a.781.781,0,0,0-.781.781V1.953H3.125A3.128,3.128,0,0,0,0,5.078v11.8A3.128,3.128,0,0,0,3.125,20H7.613a.781.781,0,1,0,0-1.562ZM7.144,1.562H8.707V3.906a.781.781,0,1,1-1.562,0ZM17.778,13.814l-3.866,5.4-.026.035A2.014,2.014,0,0,1,12.453,20q-.066,0-.133,0a2.014,2.014,0,0,1-1.386-.554l-2.5-2.4a.781.781,0,0,1,1.082-1.127l2.493,2.394a.446.446,0,0,0,.642-.033L16.507,12.9a.781.781,0,1,1,1.27.91ZM5.386,9.336a.781.781,0,0,1-.781.781H4.215a.781.781,0,1,1,0-1.562h.391A.781.781,0,0,1,5.386,9.336Zm7.109,0a.781.781,0,0,1-.781.781H7.34a.781.781,0,1,1,0-1.562h4.375A.781.781,0,0,1,12.5,9.336ZM5.386,12.461a.781.781,0,0,1-.781.781H4.215a.781.781,0,1,1,0-1.562h.391A.781.781,0,0,1,5.386,12.461Zm7.109,0a.781.781,0,0,1-.781.781H7.34a.781.781,0,1,1,0-1.562h4.375A.781.781,0,0,1,12.5,12.461Zm0,0" fill="#6f8195"/>
</svg>
