<svg xmlns="http://www.w3.org/2000/svg" width="20.1" height="20.105" viewBox="0 0 20.1 20.105">
  <g id="money-bag_1_" data-name="money-bag (1)" transform="translate(0.05 0.056)">
    <g id="Group_7350" data-name="Group 7350" transform="translate(0 -0.001)">
      <g id="Group_7349" data-name="Group 7349">
        <path id="Path_4960" data-name="Path 4960" d="M18.68,8.829a12.163,12.163,0,0,0-2.8-2.947,18.425,18.425,0,0,0-3.334-2.024l1.051-2.721a.78.78,0,0,0,.052-.281V.779A.78.78,0,0,0,12.59.049a7.08,7.08,0,0,1-5.218,0A.78.78,0,0,0,6.316.779V.857a.78.78,0,0,0,.052.281L7.42,3.86A18.318,18.318,0,0,0,4.1,5.884a12.139,12.139,0,0,0-2.79,2.947A7.761,7.761,0,0,0,0,13.1a7.072,7.072,0,0,0,1.786,5A6.382,6.382,0,0,0,6.38,20H6.4l7.031,0h.017a6.451,6.451,0,0,0,5.322-2.633.78.78,0,0,0-1.275-.9,4.93,4.93,0,0,1-4.071,1.971l-7.013,0c-2.992-.078-4.85-2.122-4.85-5.339,0-2.162,1.167-4.167,3.47-5.959A16.759,16.759,0,0,1,8.537,5.067h2.51l.036.031c2.761,2.4,4.161,4.845,4.161,7.259a.78.78,0,1,0,1.559,0,9.154,9.154,0,0,0-1.635-5.047c1.681,1.355,3.273,3.3,3.273,5.788A.78.78,0,1,0,20,13.1,7.735,7.735,0,0,0,18.68,8.829ZM11.005,3.508H8.956l-.6-1.562a8.5,8.5,0,0,0,3.257,0Z" transform="translate(0 0.001)" fill="#6f8195" stroke="#6f8195" stroke-width="0.1"/>
        <path id="Path_4961" data-name="Path 4961" d="M190.163,191.438a.756.756,0,0,0,.756-.756v-.438a2.077,2.077,0,0,0,1.816-2.067v-.186a2.087,2.087,0,0,0-.63-1.5,2.132,2.132,0,0,0-1.5-.608h-.693a.638.638,0,0,1-.615-.643v-.276a.591.591,0,0,1,.615-.594h.655a.368.368,0,0,1,.392.345.756.756,0,1,0,1.512,0,1.873,1.873,0,0,0-1.551-1.824V182.4a.756.756,0,0,0-1.512,0v.512a2.112,2.112,0,0,0-1,.547,2.082,2.082,0,0,0-.628,1.5v.276a2.144,2.144,0,0,0,2.127,2.155h.693a.6.6,0,0,1,.619.6v.186a.586.586,0,0,1-.619.577h-1.126a.348.348,0,0,1-.374-.34.756.756,0,1,0-1.512,0,1.847,1.847,0,0,0,1.816,1.851v.418A.756.756,0,0,0,190.163,191.438Z" transform="translate(-180.183 -174.161)" fill="#6f8195" stroke="#6f8195" stroke-width="0.1"/>
      </g>
    </g>
  </g>
</svg>
