<svg id="user-profile" xmlns="http://www.w3.org/2000/svg" width="16.842" height="20" viewBox="0 0 16.842 20">
  <path id="Path_4958" data-name="Path 4958" d="M18.4,19.738H16.374A6.267,6.267,0,0,0,9.979,13.62a6.267,6.267,0,0,0-6.394,6.118H1.559A8.283,8.283,0,0,1,9.98,11.62,8.282,8.282,0,0,1,18.4,19.738Z" transform="translate(-1.559 0.262)" fill="#6f8195"/>
  <path id="Path_4959" data-name="Path 4959" d="M9.98,10.97A5.548,5.548,0,0,1,4.386,5.485a5.6,5.6,0,0,1,11.191,0A5.547,5.547,0,0,1,9.98,10.97ZM9.98,2A3.524,3.524,0,0,0,6.425,5.485a3.556,3.556,0,0,0,7.111,0A3.526,3.526,0,0,0,9.98,2Z" transform="translate(-1.559)" fill="#6f8195"/>
</svg>
